#!OML:ASF G:\JayActor3\Patient Classification 1\Patient 1\Session 2\male.ASF
:FULLY-SPECIFIED
:DEGREES
2631
root 11.2897 15.6861 -3.85465 564.834 -80.4431 -1273.12
lowerback 21.323 1.38582 0.0526777
upperback 10.9649 0.865422 1.54523
thorax -0.0250147 -0.010935 1.43567
lowerneck 3.35466 11.283 5.77836
upperneck -15.6215 14.4329 -10.1369
head -4.01407 7.34499 -4.52623
rclavicle 3.97569e-015 2.14687e-014
rhumerus -11.4638 7.02597 -68.72
rradius 84.2011
rwrist 7.82742
rhand -45.2547 20.5273
rfingers 7.12502
rthumb -18.0287 -8.65709
lclavicle 3.97569e-015 2.14687e-014
lhumerus 5.89764 -15.7454 63.0663
lradius 87.9964
lwrist 18.5811
lhand -39.1302 16.2869
lfingers 7.12502
lthumb -12.1292 45.9153
rfemur -56.2485 -7.91788 15.7283
rtibia 81.8255
rfoot -21.356 -9.50687
rtoes 12.6705
lfemur -42.8058 10.5244 -32.6781
ltibia 54.3626
lfoot -20.668 7.84493
ltoes -2.70477
2632
root 11.2503 15.6788 -3.85059 565.091 -80.5461 -1273.41
lowerback 21.4697 1.40637 0.172394
upperback 11.148 0.885268 1.51952
thorax 0.105064 -0.00625146 1.33598
lowerneck 3.72554 11.1743 5.72643
upperneck -15.7612 14.3106 -10.0308
head -4.1403 7.28831 -4.52094
rclavicle -1.27222e-014 -4.45278e-014
rhumerus -11.2819 6.82837 -68.6935
rradius 84.2776
rwrist 7.76622
rhand -45.2329 20.5584
rfingers 7.12502
rthumb -18.0078 -8.6279
lclavicle -1.27222e-014 -4.45278e-014
lhumerus 5.76359 -15.6516 63.0753
lradius 88.1041
lwrist 18.6812
lhand -39.1443 16.2176
lfingers 7.12502
lthumb -12.1428 45.8453
rfemur -57.0069 -7.87342 15.9157
rtibia 80.7584
rfoot -21.4362 -8.78371
rtoes 11.3873
lfemur -42.6321 10.3834 -32.6937
ltibia 54.4522
lfoot -20.8648 7.93149
ltoes -2.71372
2633
root 11.2107 15.6724 -3.84737 565.374 -80.6714 -1273.72
lowerback 21.6146 1.42151 0.307041
upperback 11.32 0.902602 1.49833
thorax 0.224778 -0.00134905 1.23313
lowerneck 4.07281 11.0596 5.68089
upperneck -15.8508 14.1828 -9.91497
head -4.24824 7.22777 -4.5089
rclavicle -1.43125e-014 5.56597e-015
rhumerus -11.1453 6.61421 -68.6712
rradius 84.3924
rwrist 7.68524
rhand -45.2148 20.593
rfingers 7.12502
rthumb -17.9904 -8.59495
lclavicle -1.43125e-014 5.56597e-015
lhumerus 5.61723 -15.5917 63.0877
lradius 88.1987
lwrist 18.7918
lhand -39.142 16.1404
lfingers 7.12502
lthumb -12.1406 45.7682
rfemur -57.728 -7.83788 16.1098
rtibia 79.569
rfoot -21.4128 -8.03178
rtoes 10.1035
lfemur -42.4577 10.2432 -32.7037
ltibia 54.5194
lfoot -21.0513 7.99629
ltoes -2.74359
2634
root 11.1709 15.6674 -3.845 565.707 -80.8069 -1274.07
lowerback 21.7533 1.4355 0.442474
upperback 11.481 0.92041 1.47915
thorax 0.336134 0.00477773 1.13186
lowerneck 4.38683 10.9369 5.63718
upperneck -15.8877 14.047 -9.77917
head -4.33673 7.16143 -4.48559
rclavicle 2.22639e-014 -1.66979e-014
rhumerus -11.0548 6.38988 -68.652
rradius 84.5418
rwrist 7.60761
rhand -45.2093 20.6285
rfingers 7.12502
rthumb -17.985 -8.55997
lclavicle 2.22639e-014 -1.66979e-014
lhumerus 5.46087 -15.5621 63.1008
lradius 88.2805
lwrist 18.895
lhand -39.117 16.0765
lfingers 7.12502
lthumb -12.1165 45.7056
rfemur -58.4129 -7.80875 16.3017
rtibia 78.2724
rfoot -21.2696 -7.28741
rtoes 8.7978
lfemur -42.2813 10.1123 -32.7157
ltibia 54.5608
lfoot -21.2286 8.04052
ltoes -2.79279
2635
root 11.1307 15.6636 -3.84352 566.078 -80.9441 -1274.44
lowerback 21.8814 1.45118 0.569485
upperback 11.6358 0.940036 1.46197
thorax 0.446356 0.0121287 1.03715
lowerneck 4.65496 10.8094 5.59962
upperneck -15.8788 13.9054 -9.63366
head -4.4043 7.09058 -4.45413
rclavicle -2.8625e-014 1.59028e-015
rhumerus -11.0027 6.16061 -68.6342
rradius 84.7258
rwrist 7.55431
rhand -45.2141 20.6557
rfingers 7.12502
rthumb -17.9896 -8.53235
lclavicle -2.8625e-014 1.59028e-015
lhumerus 5.29888 -15.5517 63.1135
lradius 88.3542
lwrist 18.9725
lhand -39.0719 16.0432
lfingers 7.12502
lthumb -12.073 45.6749
rfemur -59.0589 -7.78278 16.4896
rtibia 76.8841
rfoot -21.01 -6.57688
rtoes 7.51598
lfemur -42.1005 9.99895 -32.7306
ltibia 54.5754
lfoot -21.3937 8.07134
ltoes -2.88593
2636
root 11.0902 15.6611 -3.84294 566.517 -81.0758 -1274.87
lowerback 22.0028 1.47115 0.67729
upperback 11.7839 0.962833 1.44558
thorax 0.552489 0.0208644 0.953506
lowerneck 4.87408 10.6803 5.57498
upperneck -15.8331 13.7608 -9.49398
head -4.45112 7.01711 -4.42039
rclavicle 5.56597e-015 1.98785e-014
rhumerus -10.9788 5.93192 -68.6086
rradius 84.9355
rwrist 7.53479
rhand -45.2277 20.664
rfingers 7.12502
rthumb -18.0027 -8.5228
lclavicle 5.56597e-015 1.98785e-014
lhumerus 5.12707 -15.5564 63.13
lradius 88.4251
lwrist 19.0135
lhand -39.0114 16.0381
lfingers 7.12502
lthumb -12.0146 45.6732
rfemur -59.668 -7.76184 16.6664
rtibia 75.4229
rfoot -20.6461 -5.93023
rtoes 6.27474
lfemur -41.9137 9.90772 -32.7569
ltibia 54.562
lfoot -21.5571 8.08566
ltoes -2.97713
2637
root 11.0495 15.6598 -3.8433 567.05 -81.2028 -1275.39
lowerback 22.1209 1.49657 0.76782
upperback 11.9256 0.990556 1.42704
thorax 0.65312 0.0319751 0.876325
lowerneck 5.05395 10.5514 5.57895
upperneck -15.7752 13.6139 -9.38121
head -4.48333 6.94202 -4.39485
rclavicle 2.06736e-014 3.33958e-014
rhumerus -10.9847 5.69406 -68.5797
rradius 85.1696
rwrist 7.55843
rhand -45.2468 20.6518
rfingers 7.12502
rthumb -18.0211 -8.53334
lclavicle 2.06736e-014 3.33958e-014
lhumerus 4.94621 -15.5801 63.1532
lradius 88.5006
lwrist 19.0065
lhand -38.9562 16.0678
lfingers 7.12502
lthumb -11.9615 45.706
rfemur -60.2403 -7.74914 16.828
rtibia 73.9066
rfoot -20.2001 -5.36832
rtoes 5.14016
lfemur -41.7208 9.83557 -32.7977
ltibia 54.5217
lfoot -21.7245 8.08812
ltoes -3.03597
2638
root 11.0087 15.6596 -3.8446 567.7 -81.3279 -1276.02
lowerback 22.2409 1.52675 0.842919
upperback 12.0623 1.02238 1.40645
thorax 0.74759 0.0449595 0.80478
lowerneck 5.19757 10.428 5.61711
upperneck -15.7253 13.4696 -9.31262
head -4.50565 6.86839 -4.38486
rclavicle -4.77083e-015 -7.15625e-015
rhumerus -11.0181 5.4409 -68.5474
rradius 85.4256
rwrist 7.62116
rhand -45.2679 20.6337
rfingers 7.12502
rthumb -18.0415 -8.54956
lclavicle -4.77083e-015 -7.15625e-015
lhumerus 4.76833 -15.6241 63.1749
lradius 88.5801
lwrist 18.9648
lhand -38.9206 16.1079
lfingers 7.12502
lthumb -11.9271 45.7482
rfemur -60.7757 -7.7488 16.9702
rtibia 72.3528
rfoot -19.6826 -4.89965
rtoes 4.22454
lfemur -41.5173 9.77912 -32.8552
ltibia 54.454
lfoot -21.9 8.06863
ltoes -3.04655
2639
root 10.9677 15.6603 -3.84676 568.494 -81.456 -1276.79
lowerback 22.3689 1.55768 0.907585
upperback 12.1915 1.05443 1.38342
thorax 0.829971 0.0581786 0.736387
lowerneck 5.31821 10.3137 5.68654
upperneck -15.7026 13.3322 -9.29303
head -4.52582 6.79896 -4.39353
rclavicle 5.56597e-015 1.74931e-014
rhumerus -11.0744 5.17777 -68.5103
rradius 85.6952
rwrist 7.70429
rhand -45.2945 20.6206
rfingers 7.12502
rthumb -18.067 -8.56032
lclavicle 5.56597e-015 1.74931e-014
lhumerus 4.58951 -15.6872 63.1965
lradius 88.6649
lwrist 18.8989
lhand -38.9085 16.1434
lfingers 7.12502
lthumb -11.9155 45.7843
rfemur -61.2761 -7.76374 17.0885
rtibia 70.7752
rfoot -19.0816 -4.53364
rtoes 3.55186
lfemur -41.3028 9.72833 -32.9292
ltibia 54.3603
lfoot -22.0846 8.02419
ltoes -2.98711
2640
root 10.9265 15.6619 -3.84975 569.453 -81.5911 -1277.72
lowerback 22.5058 1.58089 0.94836
upperback 12.319 1.0725 1.36974
thorax 0.905905 0.0630068 0.694308
lowerneck 5.39289 10.2228 5.73806
upperneck -15.7071 13.2168 -9.30849
head -4.54356 6.74248 -4.40858
rclavicle 5.56597e-015 -1.59028e-014
rhumerus -11.1195 4.93962 -68.4555
rradius 85.9716
rwrist 7.78587
rhand -45.3261 20.6136
rfingers 7.12502
rthumb -18.0975 -8.56443
lclavicle 5.56597e-015 -1.59028e-014
lhumerus 4.40104 -15.7263 63.2296
lradius 88.7582
lwrist 18.821
lhand -38.9123 16.1634
lfingers 7.12502
lthumb -11.9191 45.8042
rfemur -61.7423 -7.79437 17.1784
rtibia 69.1834
rfoot -18.3629 -4.27866
rtoes 3.16806
lfemur -41.0742 9.67275 -33.0177
ltibia 54.2407
lfoot -22.2765 7.9562
ltoes -2.86501
2641
root 10.8848 15.6647 -3.85355 570.542 -81.7355 -1278.79
lowerback 22.6569 1.59186 0.969119
upperback 12.4434 1.07155 1.36636
thorax 0.971261 0.0569697 0.678422
lowerneck 5.43996 10.1557 5.76755
upperneck -15.7463 13.1247 -9.35206
head -4.56489 6.69966 -4.42905
rclavicle -1.19271e-014 1.19271e-014
rhumerus -11.1528 4.74019 -68.387
rradius 86.2517
rwrist 7.85509
rhand -45.3616 20.614
rfingers 7.12502
rthumb -18.1316 -8.56086
lclavicle -1.19271e-014 1.19271e-014
lhumerus 4.18999 -15.7338 63.2743
lradius 88.8622
lwrist 18.7443
lhand -38.9297 16.1677
lfingers 7.12502
lthumb -11.9359 45.8074
rfemur -62.1642 -7.83443 17.2402
rtibia 67.5832
rfoot -17.4968 -4.12915
rtoes 3.10597
lfemur -40.8229 9.60824 -33.1105
ltibia 54.0964
lfoot -22.4675 7.87145
ltoes -2.71923
